<svg width="28" height="28" viewBox="0 0 28 28" fill="none" xmlns="http://www.w3.org/2000/svg">
<mask id="mask0_76_430" style="mask-type:alpha" maskUnits="userSpaceOnUse" x="0" y="0" width="28" height="28">
<rect width="28" height="28" fill="#D9D9D9"/>
</mask>
<g mask="url(#mask0_76_430)">
<path d="M12.8333 15.1667H7.00001C6.66945 15.1667 6.39237 15.0549 6.16876 14.8313C5.94515 14.6077 5.83334 14.3306 5.83334 14C5.83334 13.6695 5.94515 13.3924 6.16876 13.1688C6.39237 12.9452 6.66945 12.8334 7.00001 12.8334H12.8333V7.00004C12.8333 6.66949 12.9451 6.3924 13.1688 6.16879C13.3924 5.94518 13.6695 5.83337 14 5.83337C14.3306 5.83337 14.6076 5.94518 14.8313 6.16879C15.0549 6.3924 15.1667 6.66949 15.1667 7.00004V12.8334H21C21.3306 12.8334 21.6077 12.9452 21.8313 13.1688C22.0549 13.3924 22.1667 13.6695 22.1667 14C22.1667 14.3306 22.0549 14.6077 21.8313 14.8313C21.6077 15.0549 21.3306 15.1667 21 15.1667H15.1667V21C15.1667 21.3306 15.0549 21.6077 14.8313 21.8313C14.6076 22.0549 14.3306 22.1667 14 22.1667C13.6695 22.1667 13.3924 22.0549 13.1688 21.8313C12.9451 21.6077 12.8333 21.3306 12.8333 21V15.1667Z" fill="#1F2128"/>
</g>
</svg>
