<svg width="17" height="16" viewBox="0 0 17 16" fill="none" xmlns="http://www.w3.org/2000/svg">
<path d="M1.75 7C1.19772 7 0.75 7.44772 0.75 8C0.75 8.55228 1.19772 9 1.75 9L1.75 7ZM16.4571 8.70711C16.8476 8.31658 16.8476 7.68342 16.4571 7.29289L10.0931 0.928933C9.70262 0.538408 9.06946 0.538408 8.67893 0.928933C8.28841 1.31946 8.28841 1.95262 8.67893 2.34315L14.3358 8L8.67893 13.6569C8.28841 14.0474 8.28841 14.6805 8.67893 15.0711C9.06946 15.4616 9.70262 15.4616 10.0931 15.0711L16.4571 8.70711ZM1.75 9L15.75 9L15.75 7L1.75 7L1.75 9Z" fill="#BBBCC2"/>
</svg>
