<svg width="28" height="28" viewBox="0 0 28 28" fill="none" xmlns="http://www.w3.org/2000/svg">
<mask id="mask0_339_2478" style="mask-type:alpha" maskUnits="userSpaceOnUse" x="0" y="0" width="28" height="28">
<rect width="28" height="28" fill="#D9D9D9"/>
</mask>
<g mask="url(#mask0_339_2478)">
<path d="M14.0001 15.6333L8.28339 21.3499C8.0695 21.5638 7.79728 21.6708 7.46672 21.6708C7.13617 21.6708 6.86395 21.5638 6.65006 21.3499C6.43617 21.136 6.32922 20.8638 6.32922 20.5333C6.32922 20.2027 6.43617 19.9305 6.65006 19.7166L12.3667 13.9999L6.65006 8.28327C6.43617 8.06938 6.32922 7.79716 6.32922 7.4666C6.32922 7.13605 6.43617 6.86382 6.65006 6.64993C6.86395 6.43605 7.13617 6.3291 7.46672 6.3291C7.79728 6.3291 8.0695 6.43605 8.28339 6.64993L14.0001 12.3666L19.7167 6.64993C19.9306 6.43605 20.2028 6.3291 20.5334 6.3291C20.8639 6.3291 21.1362 6.43605 21.3501 6.64993C21.5639 6.86382 21.6709 7.13605 21.6709 7.4666C21.6709 7.79716 21.5639 8.06938 21.3501 8.28327L15.6334 13.9999L21.3501 19.7166C21.5639 19.9305 21.6709 20.2027 21.6709 20.5333C21.6709 20.8638 21.5639 21.136 21.3501 21.3499C21.1362 21.5638 20.8639 21.6708 20.5334 21.6708C20.2028 21.6708 19.9306 21.5638 19.7167 21.3499L14.0001 15.6333Z" fill="#21242C"/>
</g>
</svg>
