<svg width="21" height="20" viewBox="0 0 21 20" fill="none" xmlns="http://www.w3.org/2000/svg">
<rect x="1.25" y="0.5" width="19" height="19" rx="9.5" fill="#FFF1AA"/>
<rect x="1.25" y="0.5" width="19" height="19" rx="9.5" stroke="#EACB23"/>
<path d="M5.84687 6.5H7.57336L9.03775 14.5L8.39387 12.4713H9.03775V14.5H7.79558L5.84687 6.5ZM9.89245 6.5H10.9067L10.9295 7.39655V8.57471H10.5591L10.9295 7.39655L9.61895 14.5H8.39387L9.89245 6.5ZM10.5648 7.39655L10.5876 6.5H11.5962L13.1004 14.5L12.4509 12.4713H13.1004V14.5H11.8754L10.5648 7.39655ZM13.9095 6.5H15.6474L13.6987 14.5H12.4566L13.9095 6.5ZM10.7528 11.0632H5.75V9.93678H10.7528V11.0632ZM15.75 11.0632H10.7528V9.93678H15.75V11.0632Z" fill="#EACB23"/>
</svg>
