<svg width="40" height="40" viewBox="0 0 40 40" fill="none" xmlns="http://www.w3.org/2000/svg">
<mask id="mask0_622_2117" style="mask-type:alpha" maskUnits="userSpaceOnUse" x="0" y="0" width="40" height="40">
<rect width="40" height="40" fill="#D9D9D9"/>
</mask>
<g mask="url(#mask0_622_2117)">
<path d="M19.9998 25.9583C19.7776 25.9583 19.5693 25.9236 19.3748 25.8541C19.1804 25.7847 18.9998 25.6666 18.8332 25.5L12.8332 19.5C12.4998 19.1666 12.3401 18.7777 12.354 18.3333C12.3679 17.8888 12.5276 17.5 12.8332 17.1666C13.1665 16.8333 13.5623 16.6597 14.0207 16.6458C14.479 16.6319 14.8748 16.7916 15.2082 17.125L18.3332 20.25V8.33329C18.3332 7.86107 18.4929 7.46524 18.8123 7.14579C19.1318 6.82635 19.5276 6.66663 19.9998 6.66663C20.4721 6.66663 20.8679 6.82635 21.1873 7.14579C21.5068 7.46524 21.6665 7.86107 21.6665 8.33329V20.25L24.7915 17.125C25.1248 16.7916 25.5207 16.6319 25.979 16.6458C26.4373 16.6597 26.8332 16.8333 27.1665 17.1666C27.4721 17.5 27.6318 17.8888 27.6457 18.3333C27.6596 18.7777 27.4998 19.1666 27.1665 19.5L21.1665 25.5C20.9998 25.6666 20.8193 25.7847 20.6248 25.8541C20.4304 25.9236 20.2221 25.9583 19.9998 25.9583ZM9.99984 33.3333C9.08317 33.3333 8.29845 33.0069 7.64567 32.3541C6.99289 31.7013 6.6665 30.9166 6.6665 30V26.6666C6.6665 26.1944 6.82623 25.7986 7.14567 25.4791C7.46512 25.1597 7.86095 25 8.33317 25C8.80539 25 9.20123 25.1597 9.52067 25.4791C9.84011 25.7986 9.99984 26.1944 9.99984 26.6666V30H29.9998V26.6666C29.9998 26.1944 30.1596 25.7986 30.479 25.4791C30.7984 25.1597 31.1943 25 31.6665 25C32.1387 25 32.5346 25.1597 32.854 25.4791C33.1734 25.7986 33.3332 26.1944 33.3332 26.6666V30C33.3332 30.9166 33.0068 31.7013 32.354 32.3541C31.7012 33.0069 30.9165 33.3333 29.9998 33.3333H9.99984Z" fill="#595B66"/>
</g>
</svg>
