<svg width="95" height="24" viewBox="0 0 95 24" fill="none" xmlns="http://www.w3.org/2000/svg">
<g opacity="0.3">
<path d="M91.022 12.2697C91.022 13.7958 90.8406 15.0579 90.4776 16.0561C90.1229 17.0542 89.6032 17.7966 88.9185 18.2833C88.2338 18.7618 87.3924 19.001 86.3943 19.001C85.2641 19.001 84.2454 18.7082 83.338 18.1225C82.4388 17.5368 81.7335 16.7325 81.2221 15.7096C80.7189 14.6785 80.4673 13.5318 80.4673 12.2697C80.4673 10.9994 80.7189 9.85274 81.2221 8.82985C81.7335 7.80696 82.4388 7.00267 83.338 6.41698C84.2454 5.8313 85.2641 5.53845 86.3943 5.53845C87.3924 5.53845 88.2338 5.77768 88.9185 6.25613C89.6032 6.73457 90.1229 7.47699 90.4776 8.48339C90.8406 9.48153 91.022 10.7436 91.022 12.2697L89.7599 7.54299H91.319V16.9965H89.7599L91.022 12.2697ZM87.3718 15.3755C87.9245 15.3755 88.4194 15.2435 88.8566 14.9796C89.3021 14.7073 89.6444 14.3361 89.8837 13.8659C90.1311 13.3957 90.2549 12.8637 90.2549 12.2697C90.2549 11.6675 90.1311 11.1314 89.8837 10.6612C89.6444 10.191 89.3021 9.82387 88.8566 9.5599C88.4194 9.29592 87.9245 9.16394 87.3718 9.16394C86.8109 9.16394 86.3118 9.29592 85.8746 9.5599C85.4456 9.82387 85.1033 10.191 84.8476 10.6612C84.6001 11.1314 84.4764 11.6675 84.4764 12.2697C84.4764 12.8554 84.6001 13.3875 84.8476 13.8659C85.1033 14.3361 85.4456 14.7073 85.8746 14.9796C86.3118 15.2435 86.8109 15.3755 87.3718 15.3755ZM90.1559 18.6545V16.0808L90.7127 12.2697L90.1559 8.87934V5.88491H94.1526V18.6545H90.1559Z" fill="#21242C"/>
<path d="M66.0698 5.88489H70.2645L74.9417 18.6545H71.2915L66.0698 5.88489ZM71.2915 18.6545L73.2094 14.2371H73.6054L73.4074 14.3361L76.4761 5.88489H80.6584L73.3332 23.9999H69.1385L71.2915 18.6545Z" fill="#21242C"/>
<path d="M59.4553 19.001C58.1849 19.001 57.03 18.7082 55.9906 18.1225C54.9595 17.5368 54.1469 16.7284 53.553 15.6972C52.9591 14.6661 52.6621 13.5236 52.6621 12.2697C52.6621 10.9994 52.9591 9.85274 53.553 8.82985C54.1469 7.80696 54.9595 7.00267 55.9906 6.41698C57.03 5.8313 58.1849 5.53845 59.4553 5.53845C60.7339 5.53845 61.8887 5.8313 62.9199 6.41698C63.951 7.00267 64.7636 7.80696 65.3575 8.82985C65.9514 9.85274 66.2484 10.9994 66.2484 12.2697C66.2484 13.5236 65.9514 14.6661 65.3575 15.6972C64.7636 16.7284 63.951 17.5368 62.9199 18.1225C61.8887 18.7082 60.7339 19.001 59.4553 19.001ZM59.4553 15.3755C60.0244 15.3755 60.5359 15.2435 60.9896 14.9796C61.4515 14.7073 61.8063 14.3361 62.0537 13.8659C62.3094 13.3957 62.4373 12.8637 62.4373 12.2697C62.4373 11.6675 62.3094 11.1314 62.0537 10.6612C61.8063 10.191 61.4515 9.82387 60.9896 9.5599C60.5359 9.29592 60.0244 9.16394 59.4553 9.16394C58.8861 9.16394 58.3746 9.29592 57.9209 9.5599C57.4755 9.82387 57.1208 10.191 56.8568 10.6612C56.6011 11.1314 56.4732 11.6675 56.4732 12.2697C56.4732 12.8637 56.6011 13.3957 56.8568 13.8659C57.1208 14.3361 57.4755 14.7073 57.9209 14.9796C58.3664 15.2435 58.8778 15.3755 59.4553 15.3755Z" fill="#21242C"/>
<path d="M31.0015 5.88491H34.9858V18.6545H31.0015V5.88491ZM39.1062 11.8614C39.1062 11.02 38.933 10.3601 38.5865 9.88161C38.2483 9.40316 37.774 9.16394 37.1636 9.16394C36.7511 9.16394 36.3758 9.28355 36.0375 9.52277C35.7076 9.762 35.4477 10.1291 35.258 10.624C35.0765 11.119 34.9858 11.75 34.9858 12.5172L34.6146 10.0053V7.79046H35.3817L34.6146 10.0053C34.6146 9.13094 34.7878 8.35552 35.1343 7.6791C35.4807 7.00267 35.9716 6.47885 36.6067 6.10764C37.2419 5.72818 37.9637 5.53845 38.7721 5.53845C39.6713 5.53845 40.4426 5.7653 41.086 6.219C41.7377 6.67271 42.2368 7.32026 42.5832 8.16167C42.9297 9.00308 43.1029 10.0053 43.1029 11.1685V18.6545H39.1062V11.8614ZM47.211 11.8614C47.211 11.02 47.0419 10.3601 46.7037 9.88161C46.3654 9.40316 45.8911 9.16394 45.2807 9.16394C44.86 9.16394 44.4805 9.28355 44.1423 9.52277C43.8123 9.762 43.5566 10.1291 43.3751 10.624C43.1937 11.119 43.1029 11.75 43.1029 12.5172L42.4842 10.0053V8.35965H43.3256L42.4842 10.0053C42.4842 9.13919 42.6657 8.3679 43.0287 7.69147C43.3916 7.00679 43.899 6.47885 44.5506 6.10764C45.2023 5.72818 45.9406 5.53845 46.7655 5.53845C47.6894 5.53845 48.4813 5.7653 49.1413 6.219C49.8012 6.67271 50.3085 7.32026 50.6632 8.16167C51.0262 9.00308 51.2077 10.0053 51.2077 11.1685V18.6545H47.211V11.8614Z" fill="#21242C"/>
<path fill-rule="evenodd" clip-rule="evenodd" d="M0.847656 8.86154C0.847656 5.75971 0.847656 4.20879 1.45131 3.02405C1.9823 1.98192 2.82958 1.13465 3.87171 0.603656C5.05645 0 6.60737 0 9.7092 0H11.463V8.76266L9.09507 5.44216C8.86273 5.11636 8.74656 4.95346 8.59748 4.88504C8.46665 4.82499 8.31891 4.8127 8.17996 4.85032C8.02162 4.89319 7.88015 5.03466 7.5972 5.31762L7.59719 5.31762L6.2048 6.71001C5.91922 6.99559 5.77643 7.13838 5.73379 7.29783C5.69637 7.43773 5.7095 7.58635 5.77085 7.71752C5.84077 7.86703 6.00638 7.98259 6.33759 8.2137L6.33759 8.2137L9.77945 10.6154H0.847656V8.86154ZM14.2323 15.0537V24H15.9861C19.0879 24 20.6389 24 21.8236 23.3963C22.8657 22.8654 23.713 22.0181 24.244 20.9759C24.8477 19.7912 24.8477 18.2403 24.8477 15.1385V13.3846H16.0715L19.4391 15.7862L19.4391 15.7862C19.7649 16.0185 19.9278 16.1347 19.9962 16.2838C20.0562 16.4146 20.0685 16.5623 20.0309 16.7013C19.988 16.8596 19.8466 17.0011 19.5636 17.284L18.1712 18.6764L18.1712 18.6764C17.8856 18.962 17.7429 19.1048 17.5834 19.1474C17.4435 19.1849 17.2949 19.1717 17.1637 19.1104C17.0142 19.0405 16.8987 18.8748 16.6675 18.5436L14.2323 15.0537ZM0.847656 13.3846V15.1385C0.847656 18.2403 0.847656 19.7912 1.45131 20.9759C1.9823 22.0181 2.82958 22.8654 3.87171 23.3963C5.05645 24 6.60737 24 9.7092 24H11.463V15.2238L9.06149 18.5914L9.06148 18.5914C8.82915 18.9172 8.71298 19.0801 8.5639 19.1485C8.43307 19.2086 8.28533 19.2209 8.14638 19.1833C7.98805 19.1404 7.84657 18.9989 7.56362 18.716L7.56361 18.716L6.17123 17.3236C5.88565 17.038 5.74286 16.8952 5.70022 16.7358C5.6628 16.5959 5.67593 16.4472 5.73728 16.3161C5.8072 16.1666 5.97281 16.051 6.30402 15.8199L9.794 13.3846H0.847656ZM24.8477 10.6154H16.085L19.4055 8.24741C19.7313 8.01507 19.8942 7.8989 19.9626 7.74982C20.0227 7.61899 20.035 7.47125 19.9973 7.33231C19.9545 7.17397 19.813 7.03249 19.53 6.74953L18.1376 5.35715C17.8521 5.07156 17.7093 4.92877 17.5498 4.88613C17.4099 4.84872 17.2613 4.86184 17.1301 4.92319C16.9806 4.99312 16.8651 5.15872 16.634 5.48993L14.2323 8.93179V0H15.9861C19.0879 0 20.6389 0 21.8236 0.603656C22.8657 1.13465 23.713 1.98192 24.244 3.02405C24.8477 4.20879 24.8477 5.75971 24.8477 8.86154V10.6154Z" fill="#21242C"/>
</g>
</svg>
