<svg width="36" height="36" viewBox="0 0 37 36" fill="none" xmlns="http://www.w3.org/2000/svg">
<path d="M19.1604 29C18.8888 29 18.6161 28.9513 18.3421 28.8538C18.0682 28.7562 17.8272 28.6034 17.619 28.3954L15.7973 26.7395C13.5488 24.6893 11.5413 22.6753 9.77481 20.6974C8.00827 18.7195 7.125 16.6006 7.125 14.3407C7.125 12.541 7.73181 11.0342 8.94544 9.8204C10.1593 8.60678 11.666 7.99997 13.4658 7.99997C14.4883 7.99997 15.4984 8.23574 16.496 8.70728C17.4934 9.17882 18.3856 9.94458 19.1725 11.0045C19.9594 9.94458 20.8515 9.17882 21.8489 8.70728C22.8465 8.23574 23.8566 7.99997 24.8792 7.99997C26.6789 7.99997 28.1857 8.60678 29.3995 9.8204C30.6131 11.0342 31.2199 12.541 31.2199 14.3407C31.2199 16.6251 30.3217 18.7676 28.5251 20.7681C26.7286 22.7686 24.7255 24.7655 22.516 26.7588L20.7136 28.3954C20.5056 28.6034 20.2627 28.7562 19.9847 28.8538C19.7066 28.9513 19.4318 29 19.1604 29Z" fill="#BBBCC2"/>
</svg>
