<svg width="36" height="36" viewBox="0 0 36 36" fill="none" xmlns="http://www.w3.org/2000/svg">
<path fill-rule="evenodd" clip-rule="evenodd" d="M7.54504 14.7509L14.9483 7.39714C16.8238 5.53425 19.8512 5.53425 21.7266 7.39714L29.1299 14.7509C30.2069 15.8206 30.7155 17.336 30.5022 18.8389L29.5044 25.8668C29.1677 28.2379 27.1378 30 24.743 30H22.2611C21.1566 30 20.2611 29.1045 20.2611 28V21.3435C20.2611 20.2811 19.3999 19.4199 18.3375 19.4199C17.2751 19.4199 16.4138 20.2811 16.4138 21.3435V28C16.4138 29.1045 15.5184 30 14.4138 30H11.932C9.53713 30 7.50723 28.2379 7.17059 25.8668L6.1728 18.8389C5.95943 17.336 6.46811 15.8206 7.54504 14.7509Z" fill="#BBBCC2"/>
</svg>
