<svg width="109" height="28" viewBox="0 0 109 28" fill="none" xmlns="http://www.w3.org/2000/svg">
<path d="M105.204 14.3147C105.204 16.0951 104.992 17.5676 104.569 18.7321C104.155 19.8966 103.548 20.7628 102.75 21.3306C101.951 21.8888 100.969 22.1679 99.8046 22.1679C98.4862 22.1679 97.2976 21.8262 96.239 21.1429C95.1899 20.4596 94.3671 19.5213 93.7704 18.3279C93.1833 17.1249 92.8898 15.7872 92.8898 14.3147C92.8898 12.8326 93.1833 11.4949 93.7704 10.3015C94.3671 9.10814 95.1899 8.1698 96.239 7.4865C97.2976 6.8032 98.4862 6.46155 99.8046 6.46155C100.969 6.46155 101.951 6.74064 102.75 7.29883C103.548 7.85702 104.155 8.72318 104.569 9.8973C104.992 11.0618 105.204 12.5343 105.204 14.3147L103.731 8.80017H105.55V19.8292H103.731L105.204 14.3147ZM100.945 17.9381C101.59 17.9381 102.167 17.7841 102.677 17.4762C103.197 17.1586 103.596 16.7255 103.876 16.1769C104.164 15.6284 104.309 15.0076 104.309 14.3147C104.309 13.6122 104.164 12.9866 103.876 12.438C103.596 11.8895 103.197 11.4612 102.677 11.1532C102.167 10.8453 101.59 10.6913 100.945 10.6913C100.291 10.6913 99.7084 10.8453 99.1983 11.1532C98.6979 11.4612 98.2985 11.8895 98.0001 12.438C97.7114 12.9866 97.5671 13.6122 97.5671 14.3147C97.5671 14.998 97.7114 15.6188 98.0001 16.1769C98.2985 16.7255 98.6979 17.1586 99.1983 17.4762C99.7084 17.7841 100.291 17.9381 100.945 17.9381ZM104.193 21.7637V18.761L104.843 14.3147L104.193 10.3593V6.86575H108.856V21.7637H104.193Z" fill="#21242C"/>
<path d="M76.0927 6.86572H80.9865L86.4433 21.7636H82.1847L76.0927 6.86572ZM82.1847 21.7636L84.4223 16.61H84.8842L84.6532 16.7255L88.2334 6.86572H93.1127L84.5666 28H79.6728L82.1847 21.7636Z" fill="#21242C"/>
<path d="M68.3758 22.1679C66.8937 22.1679 65.5463 21.8262 64.3337 21.1429C63.1307 20.4596 62.1828 19.5165 61.4898 18.3135C60.7969 17.1105 60.4505 15.7775 60.4505 14.3147C60.4505 12.8326 60.7969 11.4949 61.4898 10.3015C62.1828 9.10814 63.1307 8.1698 64.3337 7.4865C65.5463 6.8032 66.8937 6.46155 68.3758 6.46155C69.8675 6.46155 71.2149 6.8032 72.4179 7.4865C73.6209 8.1698 74.5688 9.10814 75.2617 10.3015C75.9547 11.4949 76.3011 12.8326 76.3011 14.3147C76.3011 15.7775 75.9547 17.1105 75.2617 18.3135C74.5688 19.5165 73.6209 20.4596 72.4179 21.1429C71.2149 21.8262 69.8675 22.1679 68.3758 22.1679ZM68.3758 17.9381C69.0398 17.9381 69.6365 17.7841 70.1659 17.4762C70.7048 17.1586 71.1186 16.7255 71.4073 16.1769C71.7057 15.6284 71.8549 15.0076 71.8549 14.3147C71.8549 13.6122 71.7057 12.9866 71.4073 12.438C71.1186 11.8895 70.7048 11.4612 70.1659 11.1532C69.6365 10.8453 69.0398 10.6913 68.3758 10.6913C67.7117 10.6913 67.1151 10.8453 66.5857 11.1532C66.066 11.4612 65.6522 11.8895 65.3442 12.438C65.0459 12.9866 64.8967 13.6122 64.8967 14.3147C64.8967 15.0076 65.0459 15.6284 65.3442 16.1769C65.6522 16.7255 66.066 17.1586 66.5857 17.4762C67.1054 17.7841 67.7021 17.9381 68.3758 17.9381Z" fill="#21242C"/>
<path d="M35.1795 6.86575H39.8279V21.7637H35.1795V6.86575ZM44.635 13.8383C44.635 12.8567 44.4329 12.0868 44.0287 11.5286C43.6341 10.9704 43.0808 10.6913 42.3686 10.6913C41.8874 10.6913 41.4495 10.8308 41.0549 11.1099C40.67 11.389 40.3668 11.8173 40.1455 12.3947C39.9337 12.9722 39.8279 13.7084 39.8279 14.6034L39.3948 11.6729V9.08889H40.2898L39.3948 11.6729C39.3948 10.6528 39.5969 9.74813 40.0011 8.95897C40.4053 8.1698 40.9779 7.55868 41.719 7.1256C42.46 6.6829 43.3021 6.46155 44.2453 6.46155C45.2943 6.46155 46.1941 6.72621 46.9448 7.25553C47.7051 7.78484 48.2873 8.54032 48.6915 9.52197C49.0957 10.5036 49.2978 11.6729 49.2978 13.0299V21.7637H44.635V13.8383ZM54.0906 13.8383C54.0906 12.8567 53.8933 12.0868 53.4987 11.5286C53.1041 10.9704 52.5507 10.6913 51.8386 10.6913C51.3478 10.6913 50.9051 10.8308 50.5105 11.1099C50.1255 11.389 49.8272 11.8173 49.6154 12.3947C49.4037 12.9722 49.2978 13.7084 49.2978 14.6034L48.5761 11.6729V9.75294H49.5577L48.5761 11.6729C48.5761 10.6624 48.7878 9.76257 49.2112 8.9734C49.6347 8.17461 50.2266 7.55868 50.9869 7.1256C51.7471 6.6829 52.6085 6.46155 53.5709 6.46155C54.6488 6.46155 55.5727 6.72621 56.3426 7.25553C57.1125 7.78484 57.7044 8.54032 58.1182 9.52197C58.5417 10.5036 58.7534 11.6729 58.7534 13.0299V21.7637H54.0906V13.8383Z" fill="#21242C"/>
<path fill-rule="evenodd" clip-rule="evenodd" d="M0 10.3385C0 6.71966 0 4.91026 0.704266 3.52806C1.32376 2.31224 2.31224 1.32376 3.52806 0.704266C4.91026 0 6.71966 0 10.3385 0H12.3846V10.2231L9.62198 6.34919C9.35092 5.96909 9.21539 5.77904 9.04146 5.69921C8.88882 5.62915 8.71646 5.61482 8.55436 5.65871C8.36963 5.70872 8.20457 5.87377 7.87446 6.20389L6.25 7.82834C5.91682 8.16152 5.75023 8.32811 5.70049 8.51414C5.65684 8.67735 5.67215 8.85074 5.74373 9.00378C5.8253 9.1782 6.01851 9.31302 6.40492 9.58265L10.4204 12.3846H0V10.3385ZM15.6154 17.5626V28H17.6615C21.2803 28 23.0897 28 24.4719 27.2957C25.6878 26.6762 26.6762 25.6878 27.2957 24.4719C28 23.0897 28 21.2803 28 17.6615V15.6154H17.7611L21.69 18.4172C22.0701 18.6883 22.2601 18.8238 22.34 18.9977C22.41 19.1504 22.4243 19.3227 22.3805 19.4848C22.3305 19.6695 22.1654 19.8346 21.8353 20.1647L20.2108 21.7892C19.8777 22.1223 19.7111 22.2889 19.525 22.3387C19.3618 22.3823 19.1884 22.367 19.0354 22.2954C18.861 22.2139 18.7262 22.0207 18.4565 21.6342L15.6154 17.5626ZM0 15.6154V17.6615C0 21.2803 0 23.0897 0.704266 24.4719C1.32376 25.6878 2.31224 26.6762 3.52806 27.2957C4.91026 28 6.71966 28 10.3385 28H12.3846V17.7611L9.58281 21.69C9.31175 22.0701 9.17621 22.2601 9.00228 22.34C8.84965 22.41 8.67729 22.4243 8.51518 22.3805C8.33046 22.3305 8.1654 22.1654 7.8353 21.8353L6.21084 20.2108C5.87766 19.8777 5.71107 19.7111 5.66132 19.525C5.61767 19.3618 5.63298 19.1884 5.70456 19.0354C5.78614 18.861 5.97934 18.7262 6.36576 18.4565L10.4374 15.6154H0ZM28 12.3846H17.7769L21.6508 9.62198C22.0309 9.35092 22.221 9.21539 22.3008 9.04145C22.3708 8.88882 22.3852 8.71646 22.3413 8.55436C22.2913 8.36963 22.1262 8.20457 21.7961 7.87446L20.1717 6.25C19.8385 5.91682 19.6719 5.75023 19.4859 5.70048C19.3226 5.65684 19.1493 5.67215 18.9962 5.74372C18.8218 5.8253 18.687 6.01851 18.4173 6.40492L15.6154 10.4204V0H17.6615C21.2803 0 23.0897 0 24.4719 0.704266C25.6878 1.32376 26.6762 2.31224 27.2957 3.52806C28 4.91026 28 6.71966 28 10.3385V12.3846Z" fill="#FF3636"/>
</svg>
