<svg width="20" height="20" viewBox="0 0 20 20" fill="none" xmlns="http://www.w3.org/2000/svg">
<path d="M9.00396 20C4.2494 19.5322 0.467797 15.7505 0 10.996H7.80342L5.29308 12.7476C5.05485 12.9139 4.93572 12.997 4.88542 13.1045C4.84129 13.1989 4.83185 13.3058 4.85876 13.4064C4.88943 13.5211 4.99214 13.6238 5.19756 13.8292L6.19911 14.8308C6.40263 15.0343 6.5044 15.1361 6.61829 15.1669C6.71823 15.194 6.8245 15.1851 6.91861 15.1419C7.02584 15.0927 7.10941 14.9755 7.27652 14.7412L9.00396 12.3189V20Z" fill="#0CD44E"/>
<path d="M20 10.996C19.5322 15.7506 15.7505 19.5322 10.9959 20V12.1965L12.7476 14.7068C12.9138 14.9451 12.9969 15.0642 13.1045 15.1145C13.1988 15.1586 13.3057 15.1681 13.4063 15.1411C13.521 15.1105 13.6237 15.0078 13.8292 14.8024L14.8307 13.8008C15.0342 13.5973 15.136 13.4955 15.1668 13.3816C15.1939 13.2817 15.185 13.1754 15.1419 13.0813C15.0926 12.9741 14.9755 12.8905 14.7411 12.7234L12.3188 10.996H20Z" fill="#0CD44E"/>
<path d="M10.9959 0C15.7505 0.467766 19.5322 4.24942 20 9.00404H12.3285L14.717 7.30076C14.9513 7.13364 15.0685 7.05008 15.1177 6.94284C15.1609 6.84874 15.1697 6.74247 15.1427 6.64252C15.1118 6.52863 15.0101 6.42687 14.8065 6.22334L13.805 5.22179C13.5996 5.01637 13.4969 4.91366 13.3822 4.88299C13.2815 4.85608 13.1747 4.86552 13.0803 4.90965C12.9728 4.95995 12.8896 5.07907 12.7234 5.31731L10.9959 7.79303V0Z" fill="#0CD44E"/>
<path d="M9.00396 1.55171e-05V7.67138L7.30068 5.28294C7.13356 5.0486 7.05 4.93142 6.94276 4.8822C6.84866 4.83901 6.74239 4.83018 6.64244 4.85723C6.52855 4.88807 6.42679 4.98983 6.22326 5.19336L5.22171 6.19491C5.01629 6.40032 4.91358 6.50304 4.88291 6.61773C4.856 6.71836 4.86544 6.82525 4.90957 6.91961C4.95986 7.02715 5.07898 7.11027 5.31721 7.2765L7.79295 9.00404H7.48133e-07C0.467801 4.24947 4.2494 0.46785 9.00396 1.55171e-05Z" fill="#0CD44E"/>
</svg>
