<svg width="18" height="18" viewBox="0 0 18 18" fill="none" xmlns="http://www.w3.org/2000/svg">
<path fill-rule="evenodd" clip-rule="evenodd" d="M0 6.64615C0 4.31978 0 3.1566 0.452742 2.26804C0.850985 1.48644 1.48644 0.850985 2.26804 0.452742C3.1566 0 4.31978 0 6.64615 0H7.96154V6.572L6.18556 4.08162C6.01131 3.83727 5.92418 3.7151 5.81236 3.66378C5.71424 3.61874 5.60344 3.60953 5.49923 3.63774C5.38048 3.66989 5.27437 3.776 5.06215 3.98821L5.06215 3.98821L4.01786 5.03251C3.80367 5.24669 3.69658 5.35379 3.6646 5.47337C3.63654 5.5783 3.64638 5.68976 3.69239 5.78814C3.74484 5.90027 3.86904 5.98694 4.11745 6.16028L4.11745 6.16028L6.69885 7.96154H0V6.64615ZM10.0385 11.2902V18H11.3538C13.6802 18 14.8434 18 15.732 17.5473C16.5136 17.149 17.149 16.5136 17.5473 15.732C18 14.8434 18 13.6802 18 11.3538V10.0385H11.4179L13.9436 11.8396L13.9436 11.8396C14.1879 12.0139 14.3101 12.101 14.3614 12.2128C14.4064 12.3109 14.4157 12.4217 14.3874 12.526C14.3553 12.6447 14.2492 12.7508 14.037 12.963L12.9927 14.0073L12.9927 14.0073C12.7785 14.2215 12.6714 14.3286 12.5518 14.3606C12.4469 14.3886 12.3354 14.3788 12.237 14.3328C12.1249 14.2803 12.0382 14.1561 11.8649 13.9077L10.0385 11.2902ZM0 10.0385V11.3538C0 13.6802 0 14.8434 0.452742 15.732C0.850985 16.5136 1.48644 17.149 2.26804 17.5473C3.1566 18 4.31978 18 6.64615 18H7.96154V11.4179L6.16038 13.9436L6.16037 13.9436C5.98612 14.1879 5.89899 14.3101 5.78718 14.3614C5.68906 14.4064 5.57826 14.4157 5.47405 14.3874C5.35529 14.3553 5.24919 14.2492 5.03698 14.037L5.03697 14.037L3.99268 12.9927C3.77849 12.7785 3.6714 12.6714 3.63942 12.5518C3.61136 12.4469 3.6212 12.3354 3.66722 12.237C3.71966 12.1249 3.84386 12.0382 4.09227 11.8649L6.70976 10.0385H0ZM18 7.96154H11.428L13.9184 6.18556C14.1627 6.0113 14.2849 5.92418 14.3362 5.81236C14.3813 5.71424 14.3905 5.60344 14.3623 5.49923C14.3301 5.38047 14.224 5.27437 14.0118 5.06215L12.9675 4.01786C12.7533 3.80367 12.6462 3.69658 12.5266 3.6646C12.4217 3.63654 12.3102 3.64638 12.2119 3.69239C12.0997 3.74484 12.0131 3.86904 11.8397 4.11745L10.0385 6.69884V0H11.3538C13.6802 0 14.8434 0 15.732 0.452742C16.5136 0.850985 17.149 1.48644 17.5473 2.26804C18 3.1566 18 4.31978 18 6.64615V7.96154Z" fill="#FF3636"/>
</svg>
