<svg width="28" height="28" viewBox="0 0 28 28" fill="none" xmlns="http://www.w3.org/2000/svg">
<path d="M11.8372 3.78951C12.1839 2.93556 13.0216 2.33337 14 2.33337C14.9784 2.33337 15.8161 2.93556 16.1628 3.78951C19.6235 4.73754 22.1667 7.90513 22.1667 11.6667V17.1468L24.3041 20.3529C24.5427 20.7109 24.565 21.1712 24.362 21.5505C24.1589 21.9299 23.7636 22.1667 23.3333 22.1667H18.042C17.7589 24.1455 16.0571 25.6667 14 25.6667C11.9429 25.6667 10.2411 24.1455 9.95802 22.1667H4.66667C4.23641 22.1667 3.84107 21.9299 3.63805 21.5505C3.43503 21.1712 3.45728 20.7109 3.69594 20.3529L5.83334 17.1468V11.6667C5.83334 7.90513 8.37647 4.73754 11.8372 3.78951ZM12.3496 22.1667C12.5898 22.8464 13.238 23.3334 14 23.3334C14.762 23.3334 15.4102 22.8464 15.6504 22.1667H12.3496ZM14 5.83337C10.7783 5.83337 8.16667 8.44505 8.16667 11.6667V17.5C8.16667 17.7304 8.09849 17.9555 7.97073 18.1472L6.8466 19.8334H21.1534L20.0293 18.1472C19.9015 17.9555 19.8333 17.7304 19.8333 17.5V11.6667C19.8333 8.44505 17.2217 5.83337 14 5.83337Z" fill="#1F2128"/>
</svg>
