<svg width="37" height="36" viewBox="0 0 37 36" fill="none" xmlns="http://www.w3.org/2000/svg">
<path d="M3.45831 24.9333C3.45831 24.1778 3.65276 23.4833 4.04165 22.85C4.43054 22.2167 4.9472 21.7333 5.59165 21.4C6.96942 20.7111 8.36942 20.1945 9.79165 19.85C11.2139 19.5056 12.6583 19.3333 14.125 19.3333C15.5916 19.3333 17.0361 19.5056 18.4583 19.85C19.8805 20.1945 21.2805 20.7111 22.6583 21.4C23.3028 21.7333 23.8194 22.2167 24.2083 22.85C24.5972 23.4833 24.7916 24.1778 24.7916 24.9333V26C24.7916 26.7333 24.5305 27.3611 24.0083 27.8833C23.4861 28.4056 22.8583 28.6667 22.125 28.6667H6.12498C5.39165 28.6667 4.76387 28.4056 4.24165 27.8833C3.71942 27.3611 3.45831 26.7333 3.45831 26V24.9333ZM26.725 28.6667C26.9694 28.2667 27.1528 27.8389 27.275 27.3833C27.3972 26.9278 27.4583 26.4667 27.4583 26V24.6667C27.4583 23.6889 27.1861 22.75 26.6416 21.85C26.0972 20.95 25.325 20.1778 24.325 19.5333C25.4583 19.6667 26.525 19.8945 27.525 20.2167C28.525 20.5389 29.4583 20.9333 30.325 21.4C31.125 21.8445 31.7361 22.3389 32.1583 22.8833C32.5805 23.4278 32.7916 24.0222 32.7916 24.6667V26C32.7916 26.7333 32.5305 27.3611 32.0083 27.8833C31.4861 28.4056 30.8583 28.6667 30.125 28.6667H26.725ZM14.125 18C12.6583 18 11.4028 17.4778 10.3583 16.4333C9.31387 15.3889 8.79165 14.1333 8.79165 12.6667C8.79165 11.2 9.31387 9.94445 10.3583 8.90001C11.4028 7.85557 12.6583 7.33334 14.125 7.33334C15.5916 7.33334 16.8472 7.85557 17.8916 8.90001C18.9361 9.94445 19.4583 11.2 19.4583 12.6667C19.4583 14.1333 18.9361 15.3889 17.8916 16.4333C16.8472 17.4778 15.5916 18 14.125 18ZM27.4583 12.6667C27.4583 14.1333 26.9361 15.3889 25.8916 16.4333C24.8472 17.4778 23.5916 18 22.125 18C21.8805 18 21.5694 17.9722 21.1916 17.9167C20.8139 17.8611 20.5028 17.8 20.2583 17.7333C20.8583 17.0222 21.3194 16.2333 21.6416 15.3667C21.9639 14.5 22.125 13.6 22.125 12.6667C22.125 11.7333 21.9639 10.8333 21.6416 9.96668C21.3194 9.10001 20.8583 8.31112 20.2583 7.60001C20.5694 7.4889 20.8805 7.41668 21.1916 7.38334C21.5028 7.35001 21.8139 7.33334 22.125 7.33334C23.5916 7.33334 24.8472 7.85557 25.8916 8.90001C26.9361 9.94445 27.4583 11.2 27.4583 12.6667Z" fill="#BBBCC2"/>
</svg>
