<svg width="37" height="36" viewBox="0 0 37 36" fill="none" xmlns="http://www.w3.org/2000/svg">
<path d="M18.125 18C16.6583 18 15.4028 17.4778 14.3583 16.4333C13.3139 15.3889 12.7916 14.1333 12.7916 12.6667C12.7916 11.2 13.3139 9.94445 14.3583 8.90001C15.4028 7.85557 16.6583 7.33334 18.125 7.33334C19.5916 7.33334 20.8472 7.85557 21.8916 8.90001C22.9361 9.94445 23.4583 11.2 23.4583 12.6667C23.4583 14.1333 22.9361 15.3889 21.8916 16.4333C20.8472 17.4778 19.5916 18 18.125 18ZM7.45831 26V24.9333C7.45831 24.1778 7.65276 23.4833 8.04165 22.85C8.43054 22.2167 8.9472 21.7333 9.59165 21.4C10.9694 20.7111 12.3694 20.1945 13.7916 19.85C15.2139 19.5056 16.6583 19.3333 18.125 19.3333C19.5916 19.3333 21.0361 19.5056 22.4583 19.85C23.8805 20.1945 25.2805 20.7111 26.6583 21.4C27.3028 21.7333 27.8194 22.2167 28.2083 22.85C28.5972 23.4833 28.7916 24.1778 28.7916 24.9333V26C28.7916 26.7333 28.5305 27.3611 28.0083 27.8833C27.4861 28.4056 26.8583 28.6667 26.125 28.6667H10.125C9.39165 28.6667 8.76387 28.4056 8.24165 27.8833C7.71942 27.3611 7.45831 26.7333 7.45831 26Z" fill="#BBBCC2"/>
</svg>
