<svg width="40" height="40" viewBox="0 0 40 40" fill="none" xmlns="http://www.w3.org/2000/svg">
<mask id="mask0_478_2851" style="mask-type:alpha" maskUnits="userSpaceOnUse" x="0" y="0" width="40" height="40">
<rect width="40" height="40" fill="#D9D9D9"/>
</mask>
<g mask="url(#mask0_478_2851)">
<path d="M6.38875 28.3333C5.99542 28.3333 5.66556 28.1997 5.39917 27.9325C5.13306 27.6655 5 27.3345 5 26.9395C5 26.5445 5.13306 26.2151 5.39917 25.9512C5.66556 25.6873 5.99542 25.5554 6.38875 25.5554H26.6667C27.0603 25.5554 27.3901 25.689 27.6562 25.9562C27.9224 26.2234 28.0554 26.5544 28.0554 26.9491C28.0554 27.3441 27.9224 27.6736 27.6562 27.9375C27.3901 28.2014 27.0603 28.3333 26.6667 28.3333H6.38875ZM6.38875 21.3887C5.99542 21.3887 5.66556 21.2552 5.39917 20.9883C5.13306 20.7211 5 20.39 5 19.995C5 19.6002 5.13306 19.2709 5.39917 19.007C5.66556 18.7432 5.99542 18.6112 6.38875 18.6112H26.6667C27.0603 18.6112 27.3901 18.7447 27.6562 19.0116C27.9224 19.2788 28.0554 19.61 28.0554 20.005C28.0554 20.3997 27.9224 20.729 27.6562 20.9929C27.3901 21.2568 27.0603 21.3887 26.6667 21.3887H6.38875ZM6.38875 14.4445C5.99542 14.4445 5.66556 14.3109 5.39917 14.0437C5.13306 13.7765 5 13.4455 5 13.0508C5 12.6558 5.13306 12.3263 5.39917 12.0625C5.66556 11.7986 5.99542 11.6666 6.38875 11.6666H26.6667C27.0603 11.6666 27.3901 11.8002 27.6562 12.0675C27.9224 12.3344 28.0554 12.6654 28.0554 13.0604C28.0554 13.4554 27.9224 13.7848 27.6562 14.0487C27.3901 14.3126 27.0603 14.4445 26.6667 14.4445H6.38875ZM33.5971 28.3333C33.2082 28.3333 32.8818 28.2002 32.6179 27.9341C32.354 27.6677 32.2221 27.3379 32.2221 26.9445C32.2221 26.5648 32.3553 26.2384 32.6217 25.9654C32.8878 25.692 33.2176 25.5554 33.6112 25.5554C33.9907 25.5554 34.3171 25.692 34.5904 25.9654C34.8635 26.2384 35 26.5694 35 26.9583C35 27.3472 34.8635 27.6736 34.5904 27.9375C34.3171 28.2014 33.986 28.3333 33.5971 28.3333ZM33.5971 21.3887C33.2082 21.3887 32.8818 21.2557 32.6179 20.9895C32.354 20.7234 32.2221 20.3936 32.2221 20C32.2221 19.6202 32.3553 19.2938 32.6217 19.0208C32.8878 18.7477 33.2176 18.6112 33.6112 18.6112C33.9907 18.6112 34.3171 18.7477 34.5904 19.0208C34.8635 19.2938 35 19.6248 35 20.0137C35 20.4026 34.8635 20.729 34.5904 20.9929C34.3171 21.2568 33.986 21.3887 33.5971 21.3887ZM33.5971 14.4445C33.2082 14.4445 32.8818 14.3113 32.6179 14.045C32.354 13.7788 32.2221 13.449 32.2221 13.0554C32.2221 12.6759 32.3553 12.3495 32.6217 12.0762C32.8878 11.8032 33.2176 11.6666 33.6112 11.6666C33.9907 11.6666 34.3171 11.8032 34.5904 12.0762C34.8635 12.3495 35 12.6807 35 13.0695C35 13.4584 34.8635 13.7848 34.5904 14.0487C34.3171 14.3126 33.986 14.4445 33.5971 14.4445Z" fill="#595B66"/>
</g>
</svg>
