<svg width="41" height="41" viewBox="0 0 41 41" fill="none" xmlns="http://www.w3.org/2000/svg">
<mask id="mask0_740_3255" style="mask-type:alpha" maskUnits="userSpaceOnUse" x="0" y="0" width="41" height="41">
<rect x="0.25" y="0.5" width="40" height="40" fill="#D9D9D9"/>
</mask>
<g mask="url(#mask0_740_3255)">
<path d="M25.5418 14.3752C26.3474 15.1808 26.9377 16.0975 27.3127 17.1252C27.6877 18.153 27.8196 19.2086 27.7085 20.2919C27.7085 20.7086 27.5557 21.0627 27.2502 21.3544C26.9446 21.6461 26.5835 21.7919 26.1668 21.7919C25.7502 21.7919 25.396 21.6461 25.1043 21.3544C24.8127 21.0627 24.6668 20.7086 24.6668 20.2919C24.8057 19.5697 24.7641 18.8752 24.5418 18.2086C24.3196 17.5419 23.9724 16.9725 23.5002 16.5002C23.0279 16.028 22.4585 15.6669 21.7918 15.4169C21.1252 15.1669 20.4168 15.1114 19.6668 15.2502C19.2502 15.2502 18.896 15.0975 18.6043 14.7919C18.3127 14.4864 18.1668 14.1252 18.1668 13.7086C18.1668 13.2919 18.3127 12.9377 18.6043 12.6461C18.896 12.3544 19.2502 12.2086 19.6668 12.2086C20.7224 12.0975 21.7641 12.2294 22.7918 12.6044C23.8196 12.9794 24.7363 13.5697 25.5418 14.3752ZM20.2502 10.5002C19.7224 10.5002 19.2085 10.5211 18.7085 10.5627C18.2085 10.6044 17.7085 10.6808 17.2085 10.7919C16.7363 10.8752 16.3127 10.8058 15.9377 10.5836C15.5627 10.3614 15.3057 10.028 15.1668 9.58358C15.0279 9.13913 15.0766 8.70858 15.3127 8.29191C15.5488 7.87524 15.8891 7.62524 16.3335 7.54191C16.9724 7.40302 17.6182 7.3058 18.271 7.25024C18.9238 7.19469 19.5835 7.16691 20.2502 7.16691C24.0557 7.16691 27.5349 8.16691 30.6877 10.1669C33.8404 12.1669 36.2502 14.8614 37.9168 18.2502C38.0279 18.4725 38.1113 18.7016 38.1668 18.9377C38.2224 19.1739 38.2502 19.4169 38.2502 19.6669C38.2502 19.9169 38.2293 20.16 38.1877 20.3961C38.146 20.6322 38.0696 20.8614 37.9585 21.0836C37.4585 22.1947 36.8404 23.2364 36.1043 24.2086C35.3682 25.1808 34.5557 26.0697 33.6668 26.8752C33.3335 27.1808 32.9446 27.3058 32.5002 27.2502C32.0557 27.1947 31.6946 26.9725 31.4168 26.5836C31.1391 26.1947 31.021 25.7711 31.0627 25.3127C31.1043 24.8544 31.2918 24.4725 31.6252 24.1669C32.2918 23.528 32.9029 22.8336 33.4585 22.0836C34.0141 21.3336 34.5002 20.528 34.9168 19.6669C33.5279 16.8614 31.521 14.6322 28.896 12.9794C26.271 11.3266 23.3891 10.5002 20.2502 10.5002ZM20.2502 32.1669C16.5279 32.1669 13.1252 31.16 10.0418 29.1461C6.9585 27.1322 4.52794 24.4864 2.75016 21.2086C2.61127 20.9864 2.50711 20.7433 2.43766 20.4794C2.36822 20.2155 2.3335 19.9447 2.3335 19.6669C2.3335 19.3891 2.36127 19.1252 2.41683 18.8752C2.47238 18.6252 2.56961 18.3752 2.7085 18.1252C3.26405 17.0141 3.90989 15.9516 4.646 14.9377C5.38211 13.9239 6.22239 13.0002 7.16683 12.1669L3.7085 8.66691C3.40294 8.33358 3.25711 7.93774 3.271 7.47941C3.28489 7.02108 3.44461 6.63913 3.75016 6.33358C4.05572 6.02802 4.44461 5.87524 4.91683 5.87524C5.38905 5.87524 5.77794 6.02802 6.0835 6.33358L34.4168 34.6669C34.7224 34.9725 34.8821 35.3544 34.896 35.8127C34.9099 36.2711 34.7502 36.6669 34.4168 37.0002C34.1113 37.3058 33.7224 37.4586 33.2502 37.4586C32.7779 37.4586 32.3891 37.3058 32.0835 37.0002L26.2502 31.2502C25.2779 31.5558 24.2918 31.785 23.2918 31.9377C22.2918 32.0905 21.2779 32.1669 20.2502 32.1669ZM9.50016 14.5002C8.69461 15.2225 7.9585 16.0141 7.29183 16.8752C6.62516 17.7364 6.05572 18.6669 5.5835 19.6669C6.97239 22.4725 8.97933 24.7016 11.6043 26.3544C14.2293 28.0072 17.1113 28.8336 20.2502 28.8336C20.8057 28.8336 21.3474 28.7989 21.8752 28.7294C22.4029 28.66 22.9446 28.5836 23.5002 28.5002L22.0002 26.9169C21.6946 27.0002 21.4029 27.0627 21.1252 27.1044C20.8474 27.1461 20.5557 27.1669 20.2502 27.1669C18.1668 27.1669 16.396 26.4377 14.9377 24.9794C13.4793 23.5211 12.7502 21.7502 12.7502 19.6669C12.7502 19.3614 12.771 19.0697 12.8127 18.7919C12.8543 18.5141 12.9168 18.2225 13.0002 17.9169L9.50016 14.5002Z" fill="#373B44"/>
</g>
</svg>
