<svg width="41" height="41" viewBox="0 0 41 41" fill="none" xmlns="http://www.w3.org/2000/svg">
<mask id="mask0_740_3257" style="mask-type:alpha" maskUnits="userSpaceOnUse" x="0" y="0" width="41" height="41">
<rect x="0.75" y="0.5" width="40" height="40" fill="#D9D9D9"/>
</mask>
<g mask="url(#mask0_740_3257)">
<path d="M20.75 27.1667C22.8333 27.1667 24.6042 26.4376 26.0625 24.9792C27.5208 23.5209 28.25 21.7501 28.25 19.6667C28.25 17.5834 27.5208 15.8126 26.0625 14.3542C24.6042 12.8959 22.8333 12.1667 20.75 12.1667C18.6667 12.1667 16.8958 12.8959 15.4375 14.3542C13.9792 15.8126 13.25 17.5834 13.25 19.6667C13.25 21.7501 13.9792 23.5209 15.4375 24.9792C16.8958 26.4376 18.6667 27.1667 20.75 27.1667ZM20.75 24.1667C19.5 24.1667 18.4375 23.7292 17.5625 22.8542C16.6875 21.9792 16.25 20.9167 16.25 19.6667C16.25 18.4167 16.6875 17.3542 17.5625 16.4792C18.4375 15.6042 19.5 15.1667 20.75 15.1667C22 15.1667 23.0625 15.6042 23.9375 16.4792C24.8125 17.3542 25.25 18.4167 25.25 19.6667C25.25 20.9167 24.8125 21.9792 23.9375 22.8542C23.0625 23.7292 22 24.1667 20.75 24.1667ZM20.75 32.1667C17.0278 32.1667 13.6319 31.1667 10.5625 29.1667C7.49306 27.1667 5.06944 24.5279 3.29167 21.2501C3.15278 21.0001 3.04861 20.7431 2.97917 20.4792C2.90972 20.2154 2.875 19.9445 2.875 19.6667C2.875 19.389 2.90972 19.1181 2.97917 18.8542C3.04861 18.5904 3.15278 18.3334 3.29167 18.0834C5.06944 14.8056 7.49306 12.1667 10.5625 10.1667C13.6319 8.16675 17.0278 7.16675 20.75 7.16675C24.4722 7.16675 27.8681 8.16675 30.9375 10.1667C34.0069 12.1667 36.4306 14.8056 38.2083 18.0834C38.3472 18.3334 38.4514 18.5904 38.5208 18.8542C38.5903 19.1181 38.625 19.389 38.625 19.6667C38.625 19.9445 38.5903 20.2154 38.5208 20.4792C38.4514 20.7431 38.3472 21.0001 38.2083 21.2501C36.4306 24.5279 34.0069 27.1667 30.9375 29.1667C27.8681 31.1667 24.4722 32.1667 20.75 32.1667ZM20.75 28.8334C23.8889 28.8334 26.7708 28.007 29.3958 26.3542C32.0208 24.7015 34.0278 22.4723 35.4167 19.6667C34.0278 16.8612 32.0208 14.632 29.3958 12.9792C26.7708 11.3265 23.8889 10.5001 20.75 10.5001C17.6111 10.5001 14.7292 11.3265 12.1042 12.9792C9.47917 14.632 7.47222 16.8612 6.08333 19.6667C7.47222 22.4723 9.47917 24.7015 12.1042 26.3542C14.7292 28.007 17.6111 28.8334 20.75 28.8334Z" fill="#373B44"/>
</g>
</svg>
